<?xml version="1.0" standalone="no"?>
<!DOCTYPE svg PUBLIC "-//W3C//DTD SVG 20010904//EN"
 "http://www.w3.org/TR/2001/REC-SVG-20010904/DTD/svg10.dtd">
<svg version="1.0" xmlns="http://www.w3.org/2000/svg"
 width="1024.000000pt" height="1536.000000pt" viewBox="0 0 1024.000000 1536.000000"
 preserveAspectRatio="xMidYMid meet">

<g transform="translate(0.000000,1536.000000) scale(0.100000,-0.100000)"
fill="#000000" stroke="none">
<path d="M5105 14800 c-521 -43 -911 -196 -1175 -460 -255 -254 -424 -633
-470 -1050 -7 -60 -22 -131 -36 -167 -13 -34 -29 -104 -35 -155 -11 -90 -7
-306 6 -340 9 -22 -21 -31 -105 -32 -47 0 -78 6 -108 21 l-42 20 -10 -36 c-25
-92 1 -188 73 -267 26 -29 63 -62 82 -74 l33 -21 -39 -83 c-91 -195 -76 -343
55 -541 83 -124 96 -153 96 -212 0 -48 -3 -54 -30 -68 -67 -34 -145 -5 -187
70 l-22 39 -11 -29 c-7 -17 -14 -58 -17 -91 -11 -127 55 -228 190 -292 61 -29
67 -35 67 -62 0 -100 123 -200 245 -200 28 0 34 -6 51 -41 27 -62 96 -126 170
-161 59 -27 72 -30 127 -24 71 7 60 -9 -13 -20 -25 -4 -79 -19 -120 -34 -41
-15 -300 -101 -575 -190 -936 -303 -1205 -409 -1447 -570 -420 -280 -647 -600
-813 -1145 -51 -167 -142 -522 -231 -900 -100 -422 -262 -1088 -329 -1350 -70
-274 -117 -520 -150 -780 -24 -188 -27 -232 -22 -425 4 -162 10 -237 25 -305
94 -430 331 -738 796 -1035 180 -115 397 -234 580 -318 86 -40 161 -72 167
-72 6 0 8 -8 5 -17 -56 -184 -286 -1075 -286 -1108 0 -35 31 -67 107 -109 l68
-39 -22 -91 c-140 -555 -232 -1098 -338 -1994 l-5 -43 118 3 117 3 23 170 c50
374 105 754 148 1010 46 275 149 814 158 822 5 5 165 -64 180 -78 5 -4 -11
-104 -37 -236 -58 -288 -116 -606 -162 -886 -52 -322 -115 -748 -115 -779 l0
-28 120 0 c88 0 122 3 124 13 2 6 23 140 45 297 76 519 150 942 232 1314 21
99 39 182 39 186 0 4 -10 12 -22 19 -23 11 -23 11 2 5 27 -6 231 -81 236 -87
2 -2 -6 -41 -17 -88 -110 -459 -203 -954 -305 -1622 l-6 -37 1238 2 1238 3 47
225 c27 124 48 238 49 253 0 41 16 24 24 -25 6 -36 83 -363 102 -436 l6 -22
1271 0 1270 0 -7 108 c-33 509 -146 1244 -256 1667 -21 83 -41 157 -44 165 -4
10 3 21 21 32 16 9 43 31 62 49 39 39 39 3 -9 424 -70 605 -93 1219 -64 1755
l6 115 25 -85 c33 -116 66 -173 148 -256 53 -54 90 -81 155 -113 120 -58 204
-74 365 -68 492 20 894 349 1040 852 29 101 55 269 55 358 0 37 7 81 16 103
93 219 78 561 -35 799 -20 43 -30 82 -35 138 -8 101 -48 219 -129 377 -106
208 -250 664 -336 1065 l-36 169 108 206 c152 286 430 808 662 1240 304 568
354 672 362 752 11 120 -35 196 -175 290 -220 148 -370 157 -484 29 -45 -51
-320 -599 -558 -1111 -73 -157 -136 -289 -140 -293 -4 -5 -10 15 -14 43 -23
176 -103 395 -204 564 -212 352 -457 555 -868 721 -120 49 -455 156 -594 191
-63 16 -116 29 -117 29 -1 1 17 39 42 85 85 165 148 346 319 920 103 346 111
391 100 570 -5 74 -8 178 -8 230 l1 95 55 57 c31 31 68 82 82 112 31 65 61
189 74 301 6 44 21 107 36 141 60 141 52 428 -19 693 -44 164 -101 261 -200
339 -41 33 -60 60 -107 154 -155 307 -480 581 -823 693 -254 83 -600 119 -900
95z m1480 -1881 c153 -12 283 -33 299 -49 7 -7 11 -79 11 -188 0 -173 -1 -180
-39 -327 -43 -166 -47 -227 -32 -470 6 -90 5 -147 -3 -185 -14 -70 -185 -652
-257 -875 -61 -189 -170 -423 -229 -493 -39 -44 -100 -81 -195 -114 -80 -29
-303 -36 -430 -14 -394 69 -816 350 -1053 703 -85 126 -139 243 -170 366 -14
54 -32 106 -40 115 -17 20 -12 76 28 297 53 288 153 642 285 1007 37 101 13
88 247 138 428 90 1086 127 1578 89z m-2557 -66 c-10 -2 -26 -2 -35 0 -10 3
-2 5 17 5 19 0 27 -2 18 -5z m-78 -10 c-8 -3 -34 -14 -57 -24 -24 -10 -43 -16
-43 -13 0 8 83 44 100 43 13 -1 13 -1 0 -6z m209 -66 c-2 -3 -15 10 -28 27
l-24 31 28 -27 c16 -15 27 -29 24 -31z m2857 -4 c9 -3 14 -20 14 -52 0 -50
-32 -211 -50 -251 l-11 -25 7 25 c3 14 9 102 12 195 3 94 8 157 10 142 2 -16
10 -31 18 -34z m-2846 -23 c0 -5 -5 -10 -11 -10 -5 0 -7 5 -4 10 3 6 8 10 11
10 2 0 4 -4 4 -10z m-430 -14 c0 -2 -8 -10 -17 -17 -16 -13 -17 -12 -4 4 13
16 21 21 21 13z m433 -23 c-7 -2 -19 -2 -25 0 -7 3 -2 5 12 5 14 0 19 -2 13
-5z m27 -48 c0 -5 -5 -3 -10 5 -5 8 -10 20 -10 25 0 6 5 3 10 -5 5 -8 10 -19
10 -25z m-530 21 c0 -2 -8 -10 -17 -17 -16 -13 -17 -12 -4 4 13 16 21 21 21
13z m547 -88 c-3 -8 -6 -5 -6 6 -1 11 2 17 5 13 3 -3 4 -12 1 -19z m-677 8 c0
-2 -8 -10 -17 -17 -16 -13 -17 -12 -4 4 13 16 21 21 21 13z m210 0 c0 -2 -7
-7 -16 -10 -8 -3 -12 -2 -9 4 6 10 25 14 25 6z m-70 -39 c0 -2 -15 -16 -32
-33 l-33 -29 29 33 c28 30 36 37 36 29z m433 -102 c24 -35 15 -27 -44 40 -32
37 -35 42 -10 20 18 -16 42 -43 54 -60z m-227 65 c20 -8 29 -8 35 1 11 19 104
-74 154 -155 46 -75 143 -313 165 -405 8 -34 11 -84 7 -135 -8 -104 -44 -278
-60 -288 -28 -18 -132 -8 -183 17 -196 98 -374 421 -374 681 0 134 50 258 114
284 30 12 110 12 142 0z m-499 -6 c-3 -3 -12 -4 -19 -1 -8 3 -5 6 6 6 11 1 17
-2 13 -5z m-60 -10 c-3 -3 -12 -4 -19 -1 -8 3 -5 6 6 6 11 1 17 -2 13 -5z
m920 -76 c-3 -7 -5 -2 -5 12 0 14 2 19 5 13 2 -7 2 -19 0 -25z m-1003 -4 c3
-8 2 -12 -4 -9 -6 3 -10 10 -10 16 0 14 7 11 14 -7z m42 -56 l29 -33 -32 29
c-18 17 -33 31 -33 33 0 8 8 1 36 -29z m888 -15 c9 -18 14 -33 12 -33 -6 0
-36 55 -36 66 0 11 5 3 24 -33z m83 -10 c-3 -10 -5 -2 -5 17 0 19 2 27 5 18 2
-10 2 -26 0 -35z m-862 -51 c-3 -3 -11 0 -18 7 -9 10 -8 11 6 5 10 -3 15 -9
12 -12z m152 -14 c-3 -7 -5 -2 -5 12 0 14 2 19 5 13 2 -7 2 -19 0 -25z m-100
6 c-3 -3 -12 -4 -19 -1 -8 3 -5 6 6 6 11 1 17 -2 13 -5z m792 -69 c0 -5 -6 1
-14 15 -8 14 -14 30 -14 35 0 6 6 -1 14 -15 8 -14 14 -29 14 -35z m-779 41 c0
-2 -8 -10 -17 -17 -16 -13 -17 -12 -4 4 13 16 21 21 21 13z m77 -73 c-3 -10
-5 -4 -5 12 0 17 2 24 5 18 2 -7 2 -21 0 -30z m732 -48 c0 -11 -6 -2 -14 20
-18 50 -18 57 0 25 8 -14 14 -34 14 -45z m-896 -20 c-9 -19 -18 -33 -21 -31
-4 5 26 66 33 66 3 0 -3 -16 -12 -35z m174 -7 c-3 -7 -5 -2 -5 12 0 14 2 19 5
13 2 -7 2 -19 0 -25z m10 -50 c-3 -8 -6 -5 -6 6 -1 11 2 17 5 13 3 -3 4 -12 1
-19z m-216 -15 c-12 -20 -14 -14 -5 12 4 9 9 14 11 11 3 -2 0 -13 -6 -23z
m259 -118 c0 -5 -5 -3 -10 5 -5 8 -10 20 -10 25 0 6 5 3 10 -5 5 -8 10 -19 10
-25z m-283 -12 c-3 -10 -5 -4 -5 12 0 17 2 24 5 18 2 -7 2 -21 0 -30z m303
-38 c0 -5 -5 -3 -10 5 -5 8 -10 20 -10 25 0 6 5 3 10 -5 5 -8 10 -19 10 -25z
m38 -80 c-3 -3 -9 2 -12 12 -6 14 -5 15 5 6 7 -7 10 -15 7 -18z m-248 -125 c6
-11 8 -20 6 -20 -3 0 -10 9 -16 20 -6 11 -8 20 -6 20 3 0 10 -9 16 -20z m355
-30 c10 -11 16 -20 13 -20 -3 0 -13 9 -23 20 -10 11 -16 20 -13 20 3 0 13 -9
23 -20z m-255 -134 c0 -12 -5 -7 -19 24 -11 24 -11 24 3 6 9 -11 16 -24 16
-30z m445 -34 c-3 -3 -11 0 -18 7 -9 10 -8 11 6 5 10 -3 15 -9 12 -12z m-428
-34 c-3 -8 -6 -5 -6 6 -1 11 2 17 5 13 3 -3 4 -12 1 -19z m560 -75 c-3 -10 -5
-2 -5 17 0 19 2 27 5 18 2 -10 2 -26 0 -35z m-607 -96 l-34 -32 30 36 c16 20
31 34 33 32 3 -2 -10 -18 -29 -36z m634 7 c3 -8 2 -12 -4 -9 -6 3 -10 10 -10
16 0 14 7 11 14 -7z m13 -91 c-2 -16 -4 -5 -4 22 0 28 2 40 4 28 2 -13 2 -35
0 -50z m-852 47 c3 -5 1 -10 -4 -10 -6 0 -11 5 -11 10 0 6 2 10 4 10 3 0 8 -4
11 -10z m52 -16 c-3 -3 -12 -4 -19 -1 -8 3 -5 6 6 6 11 1 17 -2 13 -5z m-17
-49 c13 -14 21 -25 18 -25 -2 0 -15 11 -28 25 -13 14 -21 25 -18 25 2 0 15
-11 28 -25z m1030 -58 l55 -2 33 -67 c46 -95 136 -228 224 -333 304 -364 722
-602 1126 -641 83 -8 81 -2 52 -119 -58 -243 -182 -528 -297 -683 -63 -86
-204 -229 -246 -251 -26 -14 -33 -12 -129 35 -132 64 -335 197 -473 311 -275
225 -511 533 -609 794 l-18 46 31 62 c18 34 38 87 46 119 17 68 48 304 70 527
23 236 20 226 53 214 15 -6 52 -11 82 -12z m-640 10 c0 -2 -15 -16 -32 -33
l-33 -29 29 33 c28 30 36 37 36 29z m417 -84 c-2 -16 -4 -3 -4 27 0 30 2 43 4
28 2 -16 2 -40 0 -55z m-574 60 c-7 -2 -19 -2 -25 0 -7 3 -2 5 12 5 14 0 19
-2 13 -5z m57 -58 c0 -2 -10 -9 -22 -15 -22 -11 -22 -10 -4 4 21 17 26 19 26
11z m-87 -55 c-3 -11 -7 -20 -9 -20 -2 0 -4 9 -4 20 0 11 4 20 9 20 5 0 7 -9
4 -20z m11 -46 c3 -8 2 -12 -4 -9 -6 3 -10 10 -10 16 0 14 7 11 14 -7z m583
-31 c-3 -10 -5 -2 -5 17 0 19 2 27 5 18 2 -10 2 -26 0 -35z m-197 33 c0 -2 -8
-10 -17 -17 -16 -13 -17 -12 -4 4 13 16 21 21 21 13z m20 -16 c-6 -11 -13 -20
-16 -20 -2 0 0 9 6 20 6 11 13 20 16 20 2 0 0 -9 -6 -20z m-60 -15 c0 -2 -10
-9 -22 -15 -22 -11 -22 -10 -4 4 21 17 26 19 26 11z m-83 -41 c-3 -3 -12 -4
-19 -1 -8 3 -5 6 6 6 11 1 17 -2 13 -5z m-69 -11 c-16 -2 -40 -2 -55 0 -16 2
-3 4 27 4 30 0 43 -2 28 -4z m172 -6 c0 -2 -15 -16 -32 -33 l-33 -29 29 33
c28 30 36 37 36 29z m207 -44 c-3 -10 -5 -2 -5 17 0 19 2 27 5 18 2 -10 2 -26
0 -35z m-10 -85 c-2 -13 -4 -3 -4 22 0 25 2 35 4 23 2 -13 2 -33 0 -45z m-247
-13 c13 -14 21 -25 18 -25 -2 0 -15 11 -28 25 -13 14 -21 25 -18 25 2 0 15
-11 28 -25z m80 -62 c0 -7 -39 17 -46 28 -3 6 5 3 20 -6 14 -10 26 -19 26 -22z
m37 -9 c-3 -3 -12 -4 -19 -1 -8 3 -5 6 6 6 11 1 17 -2 13 -5z m100 0 c-3 -3
-12 -4 -19 -1 -8 3 -5 6 6 6 11 1 17 -2 13 -5z m-123 -291 c12 -83 58 -235
102 -336 70 -161 170 -311 340 -512 210 -249 572 -554 944 -797 l134 -88 34
33 c55 52 191 225 254 322 115 177 204 389 249 597 25 110 33 340 16 444 l-8
51 63 6 c35 3 66 3 70 -1 17 -17 40 -259 33 -357 -30 -455 -257 -938 -597
-1271 l-73 -72 -95 55 c-52 31 -165 105 -250 166 -737 526 -1141 981 -1303
1468 -38 112 -73 276 -62 287 6 6 121 49 136 51 4 1 10 -20 13 -46z m-269 -53
c-11 -5 -27 -9 -35 -9 -9 0 -8 4 5 9 11 5 27 9 35 9 9 0 8 -4 -5 -9z m-80 -25
c-16 -8 -37 -14 -45 -14 -8 0 1 7 20 14 46 18 64 17 25 0z m122 -42 c-3 -10
-5 -4 -5 12 0 17 2 24 5 18 2 -7 2 -21 0 -30z m-251 1 c-39 -13 -75 -24 -80
-23 -15 1 116 47 134 47 8 0 -16 -10 -54 -24z m2974 -22 c3 -3 -8 -2 -25 1
-22 4 -37 0 -55 -16 l-25 -22 24 27 c19 22 30 26 50 21 14 -3 28 -8 31 -11z
m-3095 -17 c-16 -8 -37 -14 -45 -14 -8 0 1 7 20 14 46 18 64 17 25 0z m382
-17 c-3 -7 -5 -2 -5 12 0 14 2 19 5 13 2 -7 2 -19 0 -25z m2750 26 c-3 -3 -12
-4 -19 -1 -8 3 -5 6 6 6 11 1 17 -2 13 -5z m78 -18 c28 -8 41 -14 30 -14 -21
0 -107 25 -90 27 6 0 33 -6 60 -13z m-3285 -16 c-8 -5 -22 -9 -30 -9 -10 0 -8
3 5 9 27 12 43 12 25 0z m3415 -22 c13 -5 9 -6 -15 -2 -19 4 -42 10 -50 15
-18 11 34 1 65 -13z m-3475 2 c-8 -5 -22 -9 -30 -9 -10 0 -8 3 5 9 27 12 43
12 25 0z m527 -12 c-3 -8 -6 -5 -6 6 -1 11 2 17 5 13 3 -3 4 -12 1 -19z m2563
17 c0 -2 -10 -9 -22 -15 -22 -11 -22 -10 -4 4 21 17 26 19 26 11z m2827 -1
c-3 -3 -12 -4 -19 -1 -8 3 -5 6 6 6 11 1 17 -2 13 -5z m-5992 -29 c-16 -8 -37
-14 -45 -14 -8 0 1 7 20 14 46 18 64 17 25 0z m3620 5 c13 -6 15 -9 5 -9 -8 0
-22 4 -30 9 -18 12 -2 12 25 0z m-2980 -128 c-4 -5 -35 97 -34 112 0 6 9 -16
20 -49 10 -32 16 -61 14 -63z m2472 76 c-3 -7 -5 -2 -5 12 0 14 2 19 5 13 2
-7 2 -19 0 -25z m742 -24 c73 -26 130 -48 128 -50 -2 -2 -66 18 -143 45 -76
28 -134 50 -127 50 6 1 70 -20 142 -45z m-4039 11 c-46 -18 -64 -17 -25 0 17
8 37 14 45 14 8 0 -1 -7 -20 -14z m3307 -47 c-3 -7 -5 -2 -5 12 0 14 2 19 5
13 2 -7 2 -19 0 -25z m-3412 12 c-27 -12 -43 -12 -25 0 8 5 22 9 30 9 10 0 8
-3 -5 -9z m6675 -92 c0 -7 -6 -4 -12 7 -6 11 -22 34 -37 50 -14 17 -9 14 12
-7 20 -20 37 -43 37 -50z m-2245 3 c58 -27 105 -52 105 -55 0 -4 -209 91 -219
100 -14 12 22 -2 114 -45z m-4635 20 c-8 -5 -26 -11 -40 -15 -21 -5 -20 -3 5
9 32 15 60 20 35 6z m3627 -88 c-2 -21 -4 -6 -4 32 0 39 2 55 4 38 2 -18 2
-50 0 -70z m-3697 63 c0 -6 -93 -37 -97 -32 -2 2 15 11 39 19 47 17 58 19 58
13z m-160 -61 c-14 -8 -29 -14 -35 -14 -5 0 1 6 15 14 14 8 30 14 35 14 6 0
-1 -6 -15 -14z m5040 -31 c0 -2 -13 2 -30 11 -16 9 -30 18 -30 21 0 2 14 -2
30 -11 17 -9 30 -18 30 -21z m-3606 0 c3 -8 2 -12 -4 -9 -6 3 -10 10 -10 16 0
14 7 11 14 -7z m5673 -16 c-3 -8 -6 -5 -6 6 -1 11 2 17 5 13 3 -3 4 -12 1 -19z
m-7237 -3 c-14 -8 -29 -14 -35 -14 -5 0 1 6 15 14 14 8 30 14 35 14 6 0 -1 -6
-15 -14z m5226 -16 c3 -6 -5 -3 -20 6 -14 10 -26 19 -26 22 0 7 39 -17 46 -28z
m-3627 -36 c12 -24 19 -43 16 -43 -5 0 -45 75 -45 86 0 11 6 2 29 -43z m-1670
23 c-10 -9 -169 -86 -169 -81 0 6 151 84 164 85 5 0 7 -2 5 -4z m5501 -156
c53 -52 124 -135 158 -185 69 -99 116 -175 108 -175 -2 0 -21 27 -41 61 -98
161 -215 297 -337 391 -43 33 -78 62 -78 65 0 14 108 -75 190 -157z m-1443 18
c-2 -18 -4 -6 -4 27 0 33 2 48 4 33 2 -15 2 -42 0 -60z m3204 59 c-10 -9 -11
-8 -5 6 3 10 9 15 12 12 3 -3 0 -11 -7 -18z m-7441 -11 c0 -2 -15 -13 -33 -24
-19 -11 -46 -27 -60 -37 -15 -9 -27 -15 -27 -12 0 5 110 77 117 77 2 0 3 -2 3
-4z m1900 -26 c6 -11 8 -20 6 -20 -3 0 -10 9 -16 20 -6 11 -8 20 -6 20 3 0 10
-9 16 -20z m5521 -3 c-10 -9 -11 -8 -5 6 3 10 9 15 12 12 3 -3 0 -11 -7 -18z
m-5479 -64 c54 -82 60 -93 55 -93 -4 0 -18 20 -71 103 -10 15 -16 27 -13 27 2
0 15 -17 29 -37z m4809 4 c-10 -9 -11 -8 -5 6 3 10 9 15 12 12 3 -3 0 -11 -7
-18z m-6911 -10 c0 -2 -27 -25 -60 -50 -33 -26 -60 -45 -60 -42 0 4 112 95
118 95 1 0 2 -2 2 -3z m5235 -27 c133 -12 194 -24 305 -57 293 -87 459 -233
667 -588 58 -97 75 -138 93 -214 l23 -94 -30 -60 -29 -60 -44 79 c-123 225
-246 407 -347 514 -126 134 -258 204 -475 252 -96 21 -125 23 -443 22 -187 0
-403 -6 -479 -12 -77 -7 -141 -11 -142 -9 -1 1 8 47 21 102 l22 100 64 7 c210
25 620 34 794 18z m1643 -35 c-6 -14 -13 -23 -15 -21 -5 5 15 46 22 46 3 0 -1
-11 -7 -25z m622 -25 c-6 -11 -13 -20 -16 -20 -2 0 0 9 6 20 6 11 13 20 16 20
2 0 0 -9 -6 -20z m-7690 -70 c-36 -32 -94 -89 -129 -127 -61 -65 -61 -66 -15
-9 47 57 192 196 203 196 3 -1 -23 -27 -59 -60z m2443 -40 l76 -95 -142 -22
c-548 -86 -701 -128 -870 -240 -137 -91 -235 -206 -437 -508 -62 -93 -137
-201 -166 -240 -215 -287 -458 -437 -743 -461 -150 -13 -372 35 -498 107 -69
40 -158 121 -188 174 -33 55 -65 150 -65 191 0 36 83 335 101 362 9 15 9 14 3
-3 -14 -37 -16 -162 -4 -218 29 -141 131 -270 263 -333 100 -47 163 -63 278
-71 165 -10 282 22 432 120 159 103 267 223 432 477 299 460 474 616 810 723
101 32 607 138 636 133 3 -1 40 -44 82 -96z m5177 -20 c-11 -22 -23 -40 -25
-40 -3 0 4 18 15 40 11 22 23 40 25 40 3 0 -4 -18 -15 -40z m-85 -160 c-14
-27 -28 -50 -30 -50 -3 0 6 23 20 50 14 28 28 50 30 50 3 0 -6 -22 -20 -50z
m-614 13 c-12 -20 -14 -14 -5 12 4 9 9 14 11 11 3 -2 0 -13 -6 -23z m-7141
-38 c-17 -25 -33 -45 -36 -45 -3 0 9 20 26 45 17 25 33 45 36 45 3 0 -9 -20
-26 -45z m6570 -19 c0 -12 -5 -7 -19 24 -11 24 -11 24 3 6 9 -11 16 -24 16
-30z m29 -71 c0 -5 -6 1 -14 15 -8 14 -14 30 -14 35 0 6 6 -1 14 -15 8 -14 14
-29 14 -35z m-6648 18 c-5 -10 -17 -27 -26 -38 -16 -19 -17 -19 -3 5 26 46 29
50 34 50 3 0 0 -8 -5 -17z m7120 -36 c-10 -9 -11 -8 -5 6 3 10 9 15 12 12 3
-3 0 -11 -7 -18z m-407 -192 c4 -16 5 -27 2 -24 -7 6 -56 176 -55 187 1 8 43
-119 53 -163z m986 127 c0 -5 -7 -17 -15 -28 -14 -18 -14 -17 -4 9 12 27 19
34 19 19z m-7797 -77 c-20 -41 -39 -73 -41 -71 -4 5 66 146 73 146 3 0 -12
-34 -32 -75z m7740 -30 c-3 -9 -8 -14 -10 -11 -3 3 -2 9 2 15 9 16 15 13 8 -4z
m-622 -38 c-10 -9 -11 -8 -5 6 3 10 9 15 12 12 3 -3 0 -11 -7 -18z m-7180 -68
c-11 -24 -20 -41 -20 -37 -1 12 31 89 35 85 3 -2 -4 -24 -15 -48z m7162 26
c-3 -9 -8 -14 -10 -11 -3 3 -2 9 2 15 9 16 15 13 8 -4z m570 -50 c-3 -9 -8
-14 -10 -11 -3 3 -2 9 2 15 9 16 15 13 8 -4z m-23 -45 c-6 -11 -13 -20 -16
-20 -2 0 0 9 6 20 6 11 13 20 16 20 2 0 0 -9 -6 -20z m-644 -107 c-14 -26 -25
-45 -26 -41 0 12 43 98 48 94 2 -2 -8 -26 -22 -53z m559 -53 c-9 -16 -18 -30
-21 -30 -2 0 2 14 11 30 9 17 18 30 21 30 2 0 -2 -13 -11 -30z m-60 -110 c-9
-16 -18 -30 -21 -30 -2 0 2 14 11 30 9 17 18 30 21 30 2 0 -2 -13 -11 -30z
m-622 -85 c-3 -9 -8 -14 -10 -11 -3 3 -2 9 2 15 9 16 15 13 8 -4z m552 -45
c-9 -16 -18 -30 -21 -30 -2 0 2 14 11 30 9 17 18 30 21 30 2 0 -2 -13 -11 -30z
m-574 -3 c-10 -9 -11 -8 -5 6 3 10 9 15 12 12 3 -3 0 -11 -7 -18z m-30 -64
c-12 -20 -14 -14 -5 12 4 9 9 14 11 11 3 -2 0 -13 -6 -23z m-43 -88 c-6 -14
-13 -23 -15 -21 -5 5 15 46 22 46 3 0 -1 -11 -7 -25z m532 -65 c-11 -22 -23
-40 -25 -40 -3 0 4 18 15 40 11 22 23 40 25 40 3 0 -4 -18 -15 -40z m-70 -130
c-6 -11 -13 -20 -16 -20 -2 0 0 9 6 20 6 11 13 20 16 20 2 0 0 -9 -6 -20z
m-2720 -46 c189 -28 408 -115 580 -229 41 -27 119 -92 173 -144 209 -201 347
-434 418 -710 29 -109 30 -120 19 -191 -18 -125 -19 -126 -54 -143 l-33 -15
-7 91 c-34 457 -320 883 -732 1090 -148 75 -504 164 -504 126 0 -7 41 -85 91
-174 115 -208 130 -247 136 -360 4 -75 2 -99 -16 -146 -64 -169 -195 -264
-363 -263 -65 0 -86 5 -142 33 -75 37 -133 97 -173 180 -21 45 -28 75 -31 147
-7 140 18 207 158 440 39 64 70 122 70 130 0 18 -21 18 -112 -1 -186 -39 -430
-148 -578 -259 -247 -185 -472 -496 -565 -780 -63 -194 -94 -451 -75 -626 25
-235 68 -388 164 -585 190 -388 521 -651 936 -741 117 -26 399 -26 517 -1 191
41 392 129 548 242 50 36 92 65 95 65 3 0 10 -26 16 -57 12 -67 18 -60 -111
-147 -450 -305 -1020 -337 -1494 -85 -190 101 -338 229 -473 409 -87 116 -191
316 -233 445 -93 290 -113 678 -50 960 78 346 245 642 499 882 367 347 828
492 1326 417z m2685 -23 c-21 -43 -29 -39 -8 4 9 19 18 33 21 31 2 -2 -4 -18
-13 -35z m-554 6 c-10 -9 -11 -8 -5 6 3 10 9 15 12 12 3 -3 0 -11 -7 -18z
m-31 -65 c0 -5 -7 -17 -15 -28 -14 -18 -14 -17 -4 9 12 27 19 34 19 19z m520
-62 c-6 -11 -13 -20 -16 -20 -2 0 0 9 6 20 6 11 13 20 16 20 2 0 0 -9 -6 -20z
m-560 -18 c0 -5 -7 -17 -15 -28 -14 -18 -14 -17 -4 9 12 27 19 34 19 19z m508
-77 c-6 -14 -13 -23 -15 -21 -5 5 15 46 22 46 3 0 -1 -11 -7 -25z m-7123 -70
c77 -9 152 -18 167 -21 21 -4 40 -28 96 -124 l70 -120 -34 -157 c-106 -497
-174 -806 -177 -809 -1 -2 -48 -36 -105 -77 l-101 -74 -208 24 c-115 14 -213
30 -220 36 -7 7 -33 50 -58 97 l-46 85 11 60 c20 111 39 165 57 165 46 0 243
-24 254 -31 7 -4 14 -20 15 -36 1 -31 21 -40 90 -42 l41 -1 17 76 c9 42 15 78
13 80 -7 7 -101 22 -180 29 -44 4 -84 13 -92 21 -21 21 -115 189 -115 206 0
18 63 295 92 403 12 44 31 91 42 104 12 13 57 48 101 77 59 40 87 53 105 50
14 -3 88 -12 165 -21z m7070 -25 c-9 -16 -18 -30 -21 -30 -2 0 2 14 11 30 9
17 18 30 21 30 2 0 -2 -13 -11 -30z m-2329 4 c411 -170 681 -503 771 -950 13
-66 17 -132 16 -252 l-1 -162 -46 -43 c-25 -23 -61 -68 -80 -100 -37 -62 -69
-179 -64 -232 1 -23 -7 -43 -30 -73 -18 -22 -42 -61 -53 -87 -11 -26 -23 -45
-25 -42 -3 2 5 26 16 53 32 74 49 156 60 291 13 149 11 153 -96 256 l-76 72 4
58 c3 42 10 64 26 79 21 21 22 21 41 3 13 -11 23 -37 27 -66 l7 -49 52 0 52 0
5 111 c6 120 -2 169 -33 200 -16 16 -33 19 -110 19 -102 0 -119 -6 -148 -54
-30 -47 -50 -339 -27 -384 8 -15 53 -69 100 -119 67 -71 86 -97 86 -120 0 -38
-26 -73 -54 -73 -39 0 -49 23 -47 105 l2 75 -49 0 -49 0 -7 -132 c-29 -565
-31 -662 -16 -653 28 17 159 179 185 228 l30 55 -2 -80 c-2 -77 -3 -82 -44
-134 -100 -131 -282 -276 -447 -358 -389 -195 -873 -159 -1212 89 -258 189
-424 441 -513 775 -30 111 -31 123 -31 330 -1 235 8 300 66 475 115 348 397
669 723 825 46 22 88 40 93 40 5 0 -1 -22 -14 -49 -82 -170 -76 -420 13 -568
94 -157 245 -243 427 -243 149 0 252 44 362 154 113 113 153 215 154 387 0
105 -21 206 -63 302 -14 31 -24 57 -23 57 2 0 21 -7 42 -16z m-3901 -84 c105
-16 202 -33 217 -36 21 -4 45 -31 102 -115 l74 -110 -14 -67 c-7 -37 -40 -191
-72 -342 -33 -151 -72 -336 -87 -410 -14 -74 -28 -142 -31 -151 -6 -22 -229
-169 -256 -169 -13 0 -120 16 -238 36 l-216 37 -58 105 -58 104 23 109 c16 80
27 110 39 114 17 5 285 -31 301 -41 5 -3 9 -22 9 -43 l0 -37 71 -12 c40 -7 73
-11 74 -10 6 11 34 152 31 155 -2 3 -67 14 -143 25 -76 11 -148 22 -160 24
-15 3 -38 31 -71 87 -93 155 -89 122 -42 335 68 310 55 281 172 367 56 41 111
75 123 75 11 0 106 -14 210 -30z m5656 7 c-10 -9 -11 -8 -5 6 3 10 9 15 12 12
3 -3 0 -11 -7 -18z m509 -47 c-11 -22 -23 -40 -25 -40 -3 0 4 18 15 40 11 22
23 40 25 40 3 0 -4 -18 -15 -40z m-570 -80 c-6 -11 -13 -20 -16 -20 -2 0 0 9
6 20 6 11 13 20 16 20 2 0 0 -9 -6 -20z m-29 -53 c-10 -9 -11 -8 -5 6 3 10 9
15 12 12 3 -3 0 -11 -7 -18z m529 3 c-6 -11 -13 -20 -16 -20 -2 0 0 9 6 20 6
11 13 20 16 20 2 0 0 -9 -6 -20z m-89 -163 c-10 -9 -11 -8 -5 6 3 10 9 15 12
12 3 -3 0 -11 -7 -18z m-28 -52 c-3 -9 -8 -14 -10 -11 -3 3 -2 9 2 15 9 16 15
13 8 -4z m-110 -200 c-3 -9 -8 -14 -10 -11 -3 3 -2 9 2 15 9 16 15 13 8 -4z
m-50 -90 c-3 -9 -8 -14 -10 -11 -3 3 -2 9 2 15 9 16 15 13 8 -4z m-512 -28
c-10 -9 -11 -8 -5 6 3 10 9 15 12 12 3 -3 0 -11 -7 -18z m489 -17 c-6 -11 -13
-20 -16 -20 -2 0 0 9 6 20 6 11 13 20 16 20 2 0 0 -9 -6 -20z m-50 -90 c-17
-33 -33 -60 -35 -60 -3 0 8 27 25 60 17 33 33 60 35 60 3 0 -8 -27 -25 -60z
m-509 -33 c-10 -9 -11 -8 -5 6 3 10 9 15 12 12 3 -3 0 -11 -7 -18z m-20 -40
c-10 -9 -11 -8 -5 6 3 10 9 15 12 12 3 -3 0 -11 -7 -18z m-30 -60 c-10 -9 -11
-8 -5 6 3 10 9 15 12 12 3 -3 0 -11 -7 -18z m-20 -40 c-10 -9 -11 -8 -5 6 3
10 9 15 12 12 3 -3 0 -11 -7 -18z m472 -22 c-3 -9 -8 -14 -10 -11 -3 3 -2 9 2
15 9 16 15 13 8 -4z m-23 -45 c-6 -11 -13 -20 -16 -20 -2 0 0 9 6 20 6 11 13
20 16 20 2 0 0 -9 -6 -20z m-300 -36 c0 -2 -9 0 -20 6 -11 6 -20 13 -20 16 0
2 9 0 20 -6 11 -6 20 -13 20 -16z m120 -70 c0 -2 -9 0 -20 6 -11 6 -20 13 -20
16 0 2 9 0 20 -6 11 -6 20 -13 20 -16z m917 -139 c222 -51 395 -213 483 -452
39 -107 60 -226 60 -336 0 -115 -9 -109 -13 9 -2 83 -5 95 -37 149 -19 32 -58
81 -85 109 -28 28 -71 85 -98 128 -51 82 -90 121 -179 179 -64 41 -203 95
-288 111 -46 9 -64 19 -108 62 l-53 51 33 7 c47 9 212 -1 285 -17z m-6841
-340 c144 -23 445 -102 549 -144 171 -69 356 -198 439 -306 29 -39 33 -50 26
-75 -5 -16 -11 -34 -14 -39 -4 -5 -41 15 -84 46 -144 103 -260 151 -445 183
-61 10 -143 28 -182 40 -158 46 -384 67 -550 50 -288 -29 -531 -130 -749 -311
-84 -69 -144 -133 -188 -198 -18 -26 -18 -24 -18 74 0 55 7 161 15 235 l15
135 46 41 c128 116 401 232 632 268 120 19 395 20 508 1z m6954 -200 c190
-388 -20 -1044 -433 -1356 -167 -126 -366 -195 -490 -169 -57 11 -157 54 -157
67 0 4 38 7 84 5 165 -7 308 67 491 252 169 171 321 417 398 646 81 240 76
480 -13 677 l-31 68 56 -55 c38 -37 69 -81 95 -135z m140 110 c19 -14 31 -25
27 -25 -3 0 -23 11 -43 25 -20 14 -33 25 -27 25 5 0 24 -11 43 -25z m57 -31
c-4 -4 21 -37 56 -74 54 -58 106 -130 94 -130 -2 0 -17 19 -32 43 -16 23 -52
67 -82 98 -45 48 -56 69 -35 69 3 0 2 -3 -1 -6z m193 -278 c0 -12 -5 -7 -19
24 -11 24 -11 24 3 6 9 -11 16 -24 16 -30z m20 -51 c0 -5 -5 -3 -10 5 -5 8
-10 20 -10 25 0 6 5 3 10 -5 5 -8 10 -19 10 -25z m-6873 -81 c-3 -3 -12 -4
-19 -1 -8 3 -5 6 6 6 11 1 17 -2 13 -5z m211 -1 c-10 -2 -26 -2 -35 0 -10 3
-2 5 17 5 19 0 27 -2 18 -5z m113 -40 c13 -16 12 -17 -3 -4 -17 13 -22 21 -14
21 2 0 10 -8 17 -17z m44 -33 c10 -11 16 -20 13 -20 -3 0 -13 9 -23 20 -10 11
-16 20 -13 20 3 0 13 -9 23 -20z m110 -92 c5 -5 3 -8 -5 -7 -8 0 -28 17 -45
37 l-29 37 34 -30 c19 -16 39 -33 45 -37z m-268 -4 c-3 -3 -12 -4 -19 -1 -8 3
-5 6 6 6 11 1 17 -2 13 -5z m498 -183 c76 -55 225 -185 218 -191 -4 -4 -43
-33 -86 -65 -150 -111 -306 -281 -405 -441 -183 -295 -281 -611 -270 -874 3
-86 2 -90 -17 -84 -216 66 -690 273 -852 373 l-32 20 15 63 c40 177 142 397
262 568 91 130 301 339 421 419 215 142 373 200 621 224 43 5 111 -2 125 -12z
m-1055 -5 c0 -2 -7 -7 -16 -10 -8 -3 -12 -2 -9 4 6 10 25 14 25 6z m-610 -49
c0 -2 -10 -12 -22 -23 l-23 -19 19 23 c18 21 26 27 26 19z m5335 -119 l50 -52
-51 44 c-44 38 -63 60 -51 60 1 0 25 -23 52 -52z m120 -118 c10 -11 16 -20 13
-20 -3 0 -13 9 -23 20 -10 11 -16 20 -13 20 3 0 13 -9 23 -20z m-272 -45 c-3
-9 -8 -14 -10 -11 -3 3 -2 9 2 15 9 16 15 13 8 -4z m-5022 -18 c-10 -9 -11 -8
-5 6 3 10 9 15 12 12 3 -3 0 -11 -7 -18z m5364 3 c10 -11 16 -20 13 -20 -3 0
-13 9 -23 20 -10 11 -16 20 -13 20 3 0 13 -9 23 -20z m-2673 -20 c53 -16 98
-40 207 -108 10 -7 1 -21 -39 -58 -58 -54 -144 -164 -207 -265 -123 -197 -278
-566 -352 -839 -69 -252 -83 -538 -34 -666 12 -32 -184 -6 -268 36 -191 96
-241 330 -158 740 79 392 268 810 458 1012 98 105 205 166 292 168 20 0 66 -9
101 -20z m2308 -10 c-6 -11 -13 -20 -16 -20 -2 0 0 9 6 20 6 11 13 20 16 20 2
0 0 -9 -6 -20z m-5050 -24 c0 -2 -8 -10 -17 -17 -16 -13 -17 -12 -4 4 13 16
21 21 21 13z m-417 -31 c-3 -9 -8 -14 -10 -11 -3 3 -2 9 2 15 9 16 15 13 8 -4z
m5402 -65 c-9 -16 -18 -30 -21 -30 -2 0 2 14 11 30 9 17 18 30 21 30 2 0 -2
-13 -11 -30z m-65 -120 c-6 -11 -13 -20 -16 -20 -2 0 0 9 6 20 6 11 13 20 16
20 2 0 0 -9 -6 -20z m-5423 -102 c-3 -7 -5 -2 -5 12 0 14 2 19 5 13 2 -7 2
-19 0 -25z m5348 -38 c-14 -27 -28 -50 -30 -50 -3 0 6 23 20 50 14 28 28 50
30 50 3 0 -6 -22 -20 -50z m390 20 c-9 -16 -18 -30 -21 -30 -2 0 2 14 11 30 9
17 18 30 21 30 2 0 -2 -13 -11 -30z m-34 -63 c-10 -9 -11 -8 -5 6 3 10 9 15
12 12 3 -3 0 -11 -7 -18z m-5516 -170 c41 -42 -65 46 -125 103 l-75 72 95 -83
c52 -45 100 -86 105 -92z m5116 130 c-10 -9 -11 -8 -5 6 3 10 9 15 12 12 3 -3
0 -11 -7 -18z m270 -210 c-10 -9 -11 -8 -5 6 3 10 9 15 12 12 3 -3 0 -11 -7
-18z m-430 -80 c-10 -9 -11 -8 -5 6 3 10 9 15 12 12 3 -3 0 -11 -7 -18z m352
-72 c-3 -9 -8 -14 -10 -11 -3 3 -2 9 2 15 9 16 15 13 8 -4z m-422 -63 c-7 -13
-6 -23 2 -31 9 -10 8 -11 -5 -6 -10 4 -18 9 -18 12 0 8 21 43 26 43 2 0 0 -8
-5 -18z m1279 -204 c0 -51 3 -136 6 -188 l7 -96 -79 -26 c-108 -37 -202 -63
-306 -86 l-88 -20 0 65 c0 35 -6 76 -14 91 -13 24 -12 35 11 102 15 44 23 89
21 112 -3 32 -1 38 15 38 37 0 265 50 338 74 41 13 77 24 82 25 4 1 7 -41 7
-91z m-1025 54 c-3 -3 -11 0 -18 7 -9 10 -8 11 6 5 10 -3 15 -9 12 -12z m49
-14 c-3 -4 -11 -5 -19 -1 -21 7 -19 12 4 10 11 0 18 -5 15 -9z m-4231 -518
c-3 -12 -8 -19 -11 -16 -5 6 5 36 12 36 2 0 2 -9 -1 -20z m-16 -52 c-3 -8 -6
-5 -6 6 -1 11 2 17 5 13 3 -3 4 -12 1 -19z m-10 -40 c-3 -8 -6 -5 -6 6 -1 11
2 17 5 13 3 -3 4 -12 1 -19z m233 -4 c0 -2 -9 0 -20 6 -11 6 -20 13 -20 16 0
2 9 0 20 -6 11 -6 20 -13 20 -16z m-253 -66 c-3 -8 -6 -5 -6 6 -1 11 2 17 5
13 3 -3 4 -12 1 -19z m5280 -45 c-3 -10 -5 -2 -5 17 0 19 2 27 5 18 2 -10 2
-26 0 -35z m-4837 11 c0 -2 -9 0 -20 6 -11 6 -20 13 -20 16 0 2 9 0 20 -6 11
-6 20 -13 20 -16z m-453 -6 c-3 -8 -6 -5 -6 6 -1 11 2 17 5 13 3 -3 4 -12 1
-19z m-10 -40 c-3 -8 -6 -5 -6 6 -1 11 2 17 5 13 3 -3 4 -12 1 -19z m5310 -75
c-2 -16 -4 -5 -4 22 0 28 2 40 4 28 2 -13 2 -35 0 -50z m-4527 -9 c0 -2 -7 -4
-15 -4 -8 0 -15 4 -15 10 0 5 7 7 15 4 8 -4 15 -8 15 -10z m-649 -61 c13 -16
12 -17 -3 -4 -17 13 -22 21 -14 21 2 0 10 -8 17 -17z m5186 -45 c-2 -13 -4 -3
-4 22 0 25 2 35 4 23 2 -13 2 -33 0 -45z m-630 26 c-3 -3 -12 -4 -19 -1 -8 3
-5 6 6 6 11 1 17 -2 13 -5z m643 -74 c0 -11 -4 -20 -9 -20 -5 0 -7 9 -4 20 3
11 7 20 9 20 2 0 4 -9 4 -20z m-1140 -20 c0 -5 -6 -10 -14 -10 -10 0 -16 -13
-19 -37 l-4 -38 -1 42 c-2 32 2 43 16 46 9 3 18 5 20 6 1 0 2 -3 2 -9z m37 4
c-3 -3 -12 -4 -19 -1 -8 3 -5 6 6 6 11 1 17 -2 13 -5z m-2304 -81 c-7 -2 -19
-2 -25 0 -7 3 -2 5 12 5 14 0 19 -2 13 -5z m-1398 -21 c-3 -3 -11 0 -18 7 -9
10 -8 11 6 5 10 -3 15 -9 12 -12z m1611 -38 c41 -31 74 -59 74 -61 0 -6 -61
36 -90 63 -14 12 -38 30 -55 38 -16 9 -24 16 -16 16 8 0 47 -25 87 -56z m2011
4 c-3 -7 -5 -2 -5 12 0 14 2 19 5 13 2 -7 2 -19 0 -25z m-21 -62 c-21 -49 -28
-46 -9 4 9 22 18 38 20 36 2 -2 -3 -20 -11 -40z m-1783 -80 c26 -15 47 -30 47
-33 0 -6 -96 49 -123 71 l-22 18 25 -14 c14 -8 46 -27 73 -42z m1711 -27 c-16
-17 -38 -35 -49 -41 -11 -6 0 8 25 30 53 49 65 54 24 11z m-1554 -64 c0 -3
-18 4 -40 15 -22 11 -40 23 -40 25 0 3 18 -4 40 -15 22 -11 40 -23 40 -25z
m1484 7 c3 -5 -1 -9 -9 -9 -8 0 -12 4 -9 9 3 4 7 8 9 8 2 0 6 -4 9 -8z m-1404
-42 c22 -11 40 -23 40 -25 0 -5 -79 32 -89 41 -11 10 14 2 49 -16z m-2210
-270 c8 -5 11 -10 5 -10 -5 0 -17 5 -25 10 -8 5 -10 10 -5 10 6 0 17 -5 25
-10z m60 -26 l25 -15 -25 7 c-14 3 -29 10 -34 15 -16 14 6 10 34 -7z m2843 -9
c-3 -9 -8 -14 -10 -11 -3 3 -2 9 2 15 9 16 15 13 8 -4z m-355 -20 c-6 -14 -13
-23 -15 -21 -5 5 15 46 22 46 3 0 -1 -11 -7 -25z m-2428 5 c8 -5 11 -10 5 -10
-5 0 -17 5 -25 10 -8 5 -10 10 -5 10 6 0 17 -5 25 -10z m2741 -63 c-10 -9 -11
-8 -5 6 3 10 9 15 12 12 3 -3 0 -11 -7 -18z m-351 -17 c-6 -11 -13 -20 -16
-20 -2 0 0 9 6 20 6 11 13 20 16 20 2 0 0 -9 -6 -20z m315 -50 c-9 -16 -18
-30 -21 -30 -2 0 2 14 11 30 9 17 18 30 21 30 2 0 -2 -13 -11 -30z m-75 -140
c-11 -22 -23 -40 -25 -40 -3 0 4 18 15 40 11 22 23 40 25 40 3 0 -4 -18 -15
-40z m-75 -140 c-9 -16 -18 -30 -21 -30 -2 0 2 14 11 30 9 17 18 30 21 30 2 0
-2 -13 -11 -30z m-394 -93 c-10 -9 -11 -8 -5 6 3 10 9 15 12 12 3 -3 0 -11 -7
-18z m342 -2 c-3 -9 -8 -14 -10 -11 -3 3 -2 9 2 15 9 16 15 13 8 -4z m-388
-85 c-9 -16 -18 -30 -21 -30 -2 0 2 14 11 30 9 17 18 30 21 30 2 0 -2 -13 -11
-30z m-140 -260 c-9 -16 -18 -30 -21 -30 -2 0 2 14 11 30 9 17 18 30 21 30 2
0 -2 -13 -11 -30z m345 10 c-6 -11 -13 -20 -16 -20 -2 0 0 9 6 20 6 11 13 20
16 20 2 0 0 -9 -6 -20z m-410 -130 c-6 -11 -13 -20 -16 -20 -2 0 0 9 6 20 6
11 13 20 16 20 2 0 0 -9 -6 -20z m340 0 c-6 -11 -13 -20 -16 -20 -2 0 0 9 6
20 6 11 13 20 16 20 2 0 0 -9 -6 -20z m-50 -88 c0 -5 -7 -17 -15 -28 -14 -18
-14 -17 -4 9 12 27 19 34 19 19z m-367 -57 c-3 -9 -8 -14 -10 -11 -3 3 -2 9 2
15 9 16 15 13 8 -4z m-110 -210 c-3 -9 -8 -14 -10 -11 -3 3 -2 9 2 15 9 16 15
13 8 -4z m327 -5 c-6 -11 -13 -20 -16 -20 -2 0 0 9 6 20 6 11 13 20 16 20 2 0
0 -9 -6 -20z m-70 -130 c-6 -11 -13 -20 -16 -20 -2 0 0 9 6 20 6 11 13 20 16
20 2 0 0 -9 -6 -20z m-359 -53 c-10 -9 -11 -8 -5 6 3 10 9 15 12 12 3 -3 0
-11 -7 -18z m309 -37 c-6 -11 -13 -20 -16 -20 -2 0 0 9 6 20 6 11 13 20 16 20
2 0 0 -9 -6 -20z m-39 -73 c-10 -9 -11 -8 -5 6 3 10 9 15 12 12 3 -3 0 -11 -7
-18z m-358 -62 c-3 -9 -8 -14 -10 -11 -3 3 -2 9 2 15 9 16 15 13 8 -4z m297
-55 c-11 -22 -23 -40 -25 -40 -3 0 4 18 15 40 11 22 23 40 25 40 3 0 -4 -18
-15 -40z"/>
<path d="M5400 12760 c-141 -35 -241 -92 -344 -197 -85 -86 -84 -93 2 -51 43
20 118 49 167 64 80 24 107 27 235 28 133 0 152 -2 229 -28 132 -44 181 -36
181 29 0 44 -35 84 -102 118 -117 58 -234 70 -368 37z"/>
<path d="M6570 12731 c-80 -26 -150 -64 -187 -103 -66 -69 -177 -288 -195
-386 -10 -55 -8 -66 56 -301 93 -338 136 -515 143 -587 5 -57 4 -62 -26 -96
-64 -74 -168 -76 -257 -6 -87 67 -134 96 -183 114 -85 29 -110 43 -126 68 -16
24 -16 27 5 56 31 43 19 47 -25 9 -36 -32 -37 -35 -33 -86 6 -69 31 -96 117
-124 84 -28 126 -49 176 -89 62 -50 133 -80 192 -80 71 0 166 49 208 108 26
39 30 52 29 110 -1 85 -92 425 -191 708 l-35 101 49 46 48 46 6 -37 c11 -77
57 -122 124 -122 78 0 125 68 106 153 -5 20 -6 37 -1 37 4 0 26 -15 50 -32 85
-65 80 -62 80 -44 0 33 -29 84 -61 108 -50 37 -103 51 -170 45 -69 -6 -122
-34 -191 -101 l-48 -46 0 29 c0 66 80 243 129 284 52 43 216 87 325 87 68 0
119 -15 156 -47 l31 -26 -6 29 c-24 106 -48 144 -108 173 -53 25 -113 26 -187
2z"/>
<path d="M5383 12435 c-56 -17 -129 -64 -174 -112 -42 -44 -104 -133 -92 -133
4 0 34 27 67 59 75 75 145 117 230 138 91 22 179 9 244 -37 45 -32 46 -28 5
28 -37 50 -90 72 -170 71 -37 0 -87 -6 -110 -14z"/>
<path d="M6419 12427 c-52 -20 -96 -54 -130 -100 -42 -58 -36 -65 16 -19 69
61 109 77 190 77 75 -1 122 -19 184 -70 39 -33 40 -20 2 32 -53 73 -178 111
-262 80z"/>
<path d="M5442 12340 c-55 -12 -142 -51 -185 -84 -34 -26 -86 -106 -68 -106 5
0 40 23 76 50 36 28 70 50 75 50 4 0 6 -18 3 -39 -4 -29 1 -51 18 -85 28 -58
61 -79 117 -78 36 0 51 6 77 32 42 41 62 107 47 156 -5 19 -7 34 -4 34 22 0
71 -43 86 -74 17 -36 59 -66 72 -53 13 13 -30 103 -66 137 -55 53 -159 78
-248 60z m118 -240 c0 -5 -5 -10 -11 -10 -5 0 -7 5 -4 10 3 6 8 10 11 10 2 0
4 -4 4 -10z"/>
<path d="M5339 11233 c-55 -50 -69 -81 -68 -150 l1 -58 9 54 c11 65 47 130 91
165 18 14 27 26 21 26 -7 0 -31 -17 -54 -37z"/>
<path d="M6463 11090 c-29 -36 -125 -85 -198 -101 -37 -8 -126 -13 -235 -13
-188 0 -330 17 -499 60 -52 13 -96 22 -99 20 -6 -7 80 -67 123 -85 86 -38 398
-78 514 -66 25 2 75 7 110 10 78 8 169 35 209 63 16 12 46 46 67 77 40 58 46
82 8 35z"/>
<path d="M6165 10747 c-22 -6 -122 -11 -222 -11 -100 -1 -180 -3 -178 -4 14
-14 180 -52 225 -52 64 0 144 21 195 51 53 31 48 35 -20 16z"/>
<path d="M3723 12463 c9 -2 25 -2 35 0 9 3 1 5 -18 5 -19 0 -27 -2 -17 -5z"/>
<path d="M3771 12391 c-30 -30 -42 -89 -33 -157 l8 -59 12 64 c12 65 34 111
54 111 21 0 78 -42 117 -87 l41 -45 -35 -41 c-43 -50 -59 -105 -52 -176 7 -64
50 -153 90 -187 32 -27 49 -25 25 3 -58 66 -70 185 -28 267 14 27 30 51 35 53
6 1 23 -22 39 -53 36 -68 86 -138 93 -130 3 3 1 11 -4 18 -6 7 -23 51 -38 98
-50 154 -117 256 -203 311 -53 34 -94 37 -121 10z"/>
<path d="M5453 7634 c-154 -263 -146 -246 -147 -344 -1 -130 40 -207 136 -256
120 -61 271 -1 334 131 19 40 24 66 24 130 -1 92 -3 98 -140 335 -45 79 -86
155 -89 168 -6 21 -23 -3 -118 -164z"/>
<path d="M1020 7539 c-41 -28 -76 -51 -77 -53 -2 -1 -25 -102 -53 -224 l-50
-222 41 -80 c46 -90 32 -83 204 -105 71 -9 125 -21 133 -29 13 -12 11 -31 -13
-138 -15 -67 -32 -128 -38 -134 -9 -9 -37 -9 -112 0 -113 12 -125 17 -125 51
0 21 -5 24 -57 30 -32 3 -70 8 -84 10 -25 4 -28 0 -43 -55 l-17 -59 36 -71
c20 -39 41 -73 48 -75 7 -2 90 -13 186 -24 l174 -20 83 60 c46 33 84 62 84 64
0 5 107 511 150 708 l40 189 -52 94 c-28 52 -57 94 -63 94 -10 0 -208 24 -285
35 -31 4 -47 -3 -110 -46z m235 -185 c44 -8 83 -18 88 -23 10 -10 -40 -264
-57 -286 -10 -13 -24 -13 -120 -1 -60 8 -115 20 -122 28 -10 11 -8 38 15 149
15 74 31 140 34 146 8 12 30 11 162 -13z"/>
<path d="M1136 7298 c-2 -7 -9 -42 -16 -78 -6 -36 -13 -72 -16 -82 -4 -14 6
-17 58 -23 35 -4 67 -7 73 -6 8 0 43 130 44 168 1 6 -18 14 -41 18 -24 3 -55
8 -71 11 -17 4 -28 1 -31 -8z"/>
<path d="M5873 6692 l-43 -3 0 -93 c0 -89 1 -93 25 -104 29 -13 28 2 26 -282
l-2 -205 -30 -44 -30 -43 -14 -397 c-8 -218 -16 -411 -18 -428 -2 -18 0 -33 4
-33 4 0 46 16 93 36 103 43 136 76 137 137 0 23 6 190 13 370 l13 329 -29 28
c-26 27 -28 33 -28 113 0 94 11 114 55 103 41 -11 47 -34 36 -164 -14 -164
-36 -820 -28 -828 7 -7 121 72 154 107 21 23 22 38 35 337 l13 313 -24 16
c-24 15 -24 16 -17 138 6 110 5 124 -12 145 -18 23 -18 24 0 42 16 16 18 36
18 182 0 153 -1 165 -23 197 l-23 34 -129 0 c-72 1 -149 -1 -172 -3z m206
-208 c21 -15 23 -22 18 -70 -7 -69 -11 -74 -58 -74 l-39 0 0 64 c0 89 27 116
79 80z"/>
<path d="M5427 6683 c-4 -3 -7 -48 -7 -100 0 -75 3 -93 15 -93 33 0 37 -38 33
-297 -3 -224 -5 -256 -20 -267 -15 -11 -17 -57 -25 -450 -8 -417 -9 -438 -27
-452 -18 -13 -13 -14 45 -14 126 1 263 28 298 61 23 22 26 58 41 504 5 176 13
371 16 433 l6 112 -51 0 -51 0 0 -76 c0 -91 -10 -114 -50 -114 -41 0 -50 23
-50 123 0 98 9 111 70 105 l40 -4 0 56 c0 30 3 65 6 77 6 20 2 22 -47 25 l-54
3 -3 71 c-3 81 11 107 57 102 25 -3 26 -6 29 -70 l3 -66 44 0 c25 0 47 3 49 6
2 4 7 80 11 170 l7 162 -190 0 c-104 0 -192 -3 -195 -7z"/>
<path d="M4903 6673 l-73 -4 -1 -77 c-1 -42 -2 -88 -3 -102 -1 -18 4 -25 17
-25 10 0 22 -7 27 -15 5 -8 10 -116 10 -243 0 -236 -4 -263 -44 -296 -14 -12
-16 -49 -16 -271 l0 -258 -27 -32 c-20 -25 -32 -31 -52 -27 -22 4 -16 -4 34
-50 115 -105 175 -132 220 -99 21 15 23 41 40 534 6 174 5 202 -8 202 -39 0
-42 24 -39 279 4 261 9 291 52 291 17 0 20 7 20 48 0 26 3 71 6 100 l7 52 -49
-2 c-27 -1 -82 -4 -121 -5z"/>
<path d="M5090 6585 c0 -82 3 -100 21 -124 21 -29 21 -33 13 -269 -9 -229 -10
-242 -31 -264 -24 -25 -25 -43 -46 -649 -3 -95 -20 -135 -59 -142 -49 -8 172
-91 276 -103 36 -4 63 -1 89 9 l37 16 1 183 c1 101 3 199 4 218 2 19 6 171 9
337 4 210 3 304 -5 308 -5 4 -25 4 -43 1 l-34 -6 -8 -87 c-7 -66 -13 -88 -27
-97 -15 -9 -22 -7 -38 13 -19 23 -19 35 -13 270 4 135 11 254 15 263 5 9 18
20 29 23 18 6 20 15 20 101 l0 94 -105 0 -105 0 0 -95z"/>
<path d="M4513 6659 c-61 -18 -76 -55 -86 -213 -5 -78 -6 -229 -4 -336 4 -171
8 -207 31 -290 54 -192 164 -392 245 -447 44 -30 57 -29 78 4 17 25 18 73 21
625 l3 599 -34 34 -35 35 -93 -1 c-52 0 -108 -5 -126 -10z m131 -215 c14 -13
16 -50 16 -252 0 -253 -5 -284 -48 -290 -50 -7 -52 2 -52 267 0 207 2 250 16
269 18 26 46 28 68 6z"/>
<path d="M1816 7430 c-43 -33 -80 -61 -82 -62 -1 -2 -23 -95 -48 -208 l-46
-204 46 -86 c25 -47 49 -89 53 -93 5 -4 83 -20 175 -36 92 -15 172 -33 178
-39 9 -9 4 -44 -17 -137 -24 -107 -31 -126 -49 -131 -12 -2 -70 4 -131 14
l-110 18 -3 37 c-2 20 -4 37 -5 38 -24 8 -184 24 -190 19 -5 -4 -15 -32 -23
-63 l-14 -56 40 -81 c22 -44 44 -80 48 -80 4 0 97 -16 207 -35 l200 -34 80 52
c113 72 110 69 124 150 13 74 112 539 156 730 28 122 31 109 -46 222 l-48 71
-198 27 c-109 15 -202 27 -208 27 -5 0 -46 -27 -89 -60z m258 -192 c56 -11
109 -24 119 -29 22 -12 22 -46 -2 -133 -11 -39 -25 -90 -31 -113 -9 -35 -15
-43 -33 -43 -40 1 -258 47 -268 57 -6 6 0 52 17 129 36 164 38 168 71 159 15
-3 72 -16 127 -27z"/>
<path d="M1965 7190 c-9 -14 -35 -153 -31 -158 7 -6 126 -31 152 -32 18 0 23
11 39 80 10 44 16 81 14 83 -11 9 -170 33 -174 27z"/>
</g>
</svg>
